<svg width="612" height="160" viewBox="0 0 612 160" fill="none" xmlns="http://www.w3.org/2000/svg">
<rect width="612" height="160" rx="16" fill="#0F1F2B"/>
<rect x="32" y="32" width="72" height="40" rx="6" fill="white"/>
<path d="M58.1035 58H56.0293V52.0234C56.0293 51.2734 55.877 50.7139 55.5723 50.3447C55.2734 49.9756 54.7959 49.791 54.1396 49.791C53.2666 49.791 52.6279 50.0488 52.2236 50.5645C51.8193 51.0801 51.6172 51.9443 51.6172 53.1572V58H49.5518V48.2793H51.1689L51.459 49.5537H51.5645C51.8574 49.0908 52.2734 48.7334 52.8125 48.4814C53.3516 48.2295 53.9492 48.1035 54.6055 48.1035C56.9375 48.1035 58.1035 49.29 58.1035 51.6631V58ZM65.9082 58.1758C64.6777 58.1758 63.7227 57.7334 63.043 56.8486H62.9199C63.002 57.6689 63.043 58.167 63.043 58.3428V62.3242H60.9775V48.2793H62.6475C62.6943 48.4609 62.791 48.8945 62.9375 49.5801H63.043C63.6875 48.5957 64.6543 48.1035 65.9434 48.1035C67.1562 48.1035 68.0996 48.543 68.7734 49.4219C69.4531 50.3008 69.793 51.5342 69.793 53.1221C69.793 54.71 69.4473 55.9492 68.7559 56.8398C68.0703 57.7305 67.1211 58.1758 65.9082 58.1758ZM65.4072 49.791C64.5869 49.791 63.9863 50.0312 63.6055 50.5117C63.2305 50.9922 63.043 51.7598 63.043 52.8145V53.1221C63.043 54.3057 63.2305 55.1641 63.6055 55.6973C63.9805 56.2246 64.5928 56.4883 65.4424 56.4883C66.1572 56.4883 66.708 56.1953 67.0947 55.6094C67.4814 55.0234 67.6748 54.1885 67.6748 53.1045C67.6748 52.0146 67.4814 51.1914 67.0947 50.6348C66.7139 50.0723 66.1514 49.791 65.4072 49.791ZM80.3838 58H78.3096V52.0059C78.3096 51.2617 78.1689 50.708 77.8877 50.3447C77.6064 49.9756 77.167 49.791 76.5693 49.791C75.7725 49.791 75.1865 50.0518 74.8115 50.5732C74.4424 51.0889 74.2578 51.9502 74.2578 53.1572V58H72.1924V48.2793H73.8096L74.0996 49.5537H74.2051C74.4746 49.0908 74.8643 48.7334 75.374 48.4814C75.8896 48.2295 76.4551 48.1035 77.0703 48.1035C78.5645 48.1035 79.5547 48.6133 80.041 49.6328H80.1816C80.4688 49.1523 80.873 48.7773 81.3945 48.5078C81.916 48.2383 82.5137 48.1035 83.1875 48.1035C84.3477 48.1035 85.1914 48.3965 85.7188 48.9824C86.252 49.5684 86.5186 50.4619 86.5186 51.6631V58H84.4531V52.0059C84.4531 51.2617 84.3096 50.708 84.0225 50.3447C83.7412 49.9756 83.3018 49.791 82.7041 49.791C81.9014 49.791 81.3125 50.043 80.9375 50.5469C80.5684 51.0449 80.3838 51.8125 80.3838 52.8496V58Z" fill="#183B56"/>
<rect opacity="0.05" x="116" y="32" width="88" height="40" rx="6" fill="white"/>
<path d="M138.906 48.1035C140.119 48.1035 141.062 48.543 141.736 49.4219C142.416 50.3008 142.756 51.5342 142.756 53.1221C142.756 54.7158 142.413 55.958 141.728 56.8486C141.042 57.7334 140.09 58.1758 138.871 58.1758C137.641 58.1758 136.686 57.7334 136.006 56.8486H135.865L135.487 58H133.94V44.3242H136.006V47.5762C136.006 47.8164 135.994 48.1738 135.971 48.6484C135.947 49.123 135.93 49.4248 135.918 49.5537H136.006C136.662 48.5869 137.629 48.1035 138.906 48.1035ZM138.37 49.791C137.538 49.791 136.938 50.0371 136.568 50.5293C136.205 51.0156 136.018 51.833 136.006 52.9814V53.1221C136.006 54.3057 136.193 55.1641 136.568 55.6973C136.943 56.2246 137.556 56.4883 138.405 56.4883C139.138 56.4883 139.691 56.1982 140.066 55.6182C140.447 55.0381 140.638 54.2002 140.638 53.1045C140.638 50.8955 139.882 49.791 138.37 49.791ZM153.777 53.1221C153.777 54.71 153.37 55.9492 152.556 56.8398C151.741 57.7305 150.607 58.1758 149.154 58.1758C148.246 58.1758 147.443 57.9707 146.746 57.5605C146.049 57.1504 145.513 56.5615 145.138 55.7939C144.763 55.0264 144.575 54.1357 144.575 53.1221C144.575 51.5459 144.979 50.3154 145.788 49.4307C146.597 48.5459 147.736 48.1035 149.207 48.1035C150.613 48.1035 151.727 48.5576 152.547 49.4658C153.367 50.3682 153.777 51.5869 153.777 53.1221ZM146.702 53.1221C146.702 55.3662 147.531 56.4883 149.189 56.4883C150.83 56.4883 151.65 55.3662 151.65 53.1221C151.65 50.9014 150.824 49.791 149.172 49.791C148.305 49.791 147.675 50.0781 147.282 50.6523C146.896 51.2266 146.702 52.0498 146.702 53.1221ZM164.131 58L162.874 53.4648C162.722 52.9844 162.446 51.8682 162.048 50.1162H161.969C161.629 51.6982 161.359 52.8203 161.16 53.4824L159.868 58H157.583L154.858 48.2793H156.968L158.207 53.0693C158.488 54.2529 158.688 55.2666 158.805 56.1104H158.857C158.916 55.6826 159.004 55.1934 159.121 54.6426C159.244 54.0859 159.35 53.6699 159.438 53.3945L160.914 48.2793H163.182L164.614 53.3945C164.702 53.6816 164.811 54.1211 164.939 54.7129C165.074 55.3047 165.153 55.7646 165.177 56.0928H165.247C165.335 55.3721 165.54 54.3643 165.862 53.0693L167.119 48.2793H169.193L166.451 58H164.131ZM175.117 58.1758C173.605 58.1758 172.422 57.7363 171.566 56.8574C170.717 55.9727 170.292 54.7568 170.292 53.21C170.292 51.6221 170.688 50.374 171.479 49.4658C172.27 48.5576 173.356 48.1035 174.739 48.1035C176.022 48.1035 177.036 48.4932 177.78 49.2725C178.524 50.0518 178.896 51.124 178.896 52.4893V53.6055H172.419C172.448 54.5488 172.703 55.2754 173.184 55.7852C173.664 56.2891 174.341 56.541 175.214 56.541C175.788 56.541 176.321 56.4883 176.813 56.3828C177.312 56.2715 177.845 56.0898 178.413 55.8379V57.5166C177.909 57.7568 177.399 57.9268 176.884 58.0264C176.368 58.126 175.779 58.1758 175.117 58.1758ZM174.739 49.668C174.083 49.668 173.556 49.876 173.157 50.292C172.765 50.708 172.53 51.3145 172.454 52.1113H176.866C176.854 51.3086 176.661 50.7021 176.286 50.292C175.911 49.876 175.396 49.668 174.739 49.668ZM186.174 48.1035C186.59 48.1035 186.933 48.1328 187.202 48.1914L187 50.1162C186.707 50.0459 186.402 50.0107 186.086 50.0107C185.26 50.0107 184.589 50.2803 184.073 50.8193C183.563 51.3584 183.309 52.0586 183.309 52.9199V58H181.243V48.2793H182.86L183.133 49.9932H183.238C183.561 49.4131 183.979 48.9531 184.495 48.6133C185.017 48.2734 185.576 48.1035 186.174 48.1035Z" fill="#5A7184"/>
<rect opacity="0.05" x="216" y="32" width="73" height="40" rx="6" fill="white"/>
<path d="M237.682 51.0127L240.723 45.1504H243.008L238.728 53.0166V58H236.618V53.0869L232.355 45.1504H234.641L237.682 51.0127ZM250.566 58L250.153 56.6465H250.083C249.614 57.2383 249.143 57.6426 248.668 57.8594C248.193 58.0703 247.584 58.1758 246.84 58.1758C245.885 58.1758 245.138 57.918 244.599 57.4023C244.065 56.8867 243.799 56.1572 243.799 55.2139C243.799 54.2119 244.171 53.4561 244.915 52.9463C245.659 52.4365 246.793 52.1582 248.316 52.1113L249.995 52.0586V51.54C249.995 50.9189 249.849 50.4561 249.556 50.1514C249.269 49.8408 248.82 49.6855 248.211 49.6855C247.713 49.6855 247.235 49.7588 246.778 49.9053C246.321 50.0518 245.882 50.2246 245.46 50.4238L244.792 48.9473C245.319 48.6719 245.896 48.4639 246.523 48.3232C247.15 48.1768 247.742 48.1035 248.299 48.1035C249.535 48.1035 250.467 48.373 251.094 48.9121C251.727 49.4512 252.043 50.2979 252.043 51.4521V58H250.566ZM247.49 56.5938C248.24 56.5938 248.841 56.3857 249.292 55.9697C249.749 55.5479 249.978 54.959 249.978 54.2031V53.3594L248.729 53.4121C247.757 53.4473 247.048 53.6113 246.603 53.9043C246.163 54.1914 245.943 54.6338 245.943 55.2314C245.943 55.665 246.072 56.002 246.33 56.2422C246.588 56.4766 246.975 56.5938 247.49 56.5938ZM259.856 48.1035C260.272 48.1035 260.615 48.1328 260.885 48.1914L260.683 50.1162C260.39 50.0459 260.085 50.0107 259.769 50.0107C258.942 50.0107 258.271 50.2803 257.756 50.8193C257.246 51.3584 256.991 52.0586 256.991 52.9199V58H254.926V48.2793H256.543L256.815 49.9932H256.921C257.243 49.4131 257.662 48.9531 258.178 48.6133C258.699 48.2734 259.259 48.1035 259.856 48.1035ZM271.247 58H269.173V52.0234C269.173 51.2734 269.021 50.7139 268.716 50.3447C268.417 49.9756 267.939 49.791 267.283 49.791C266.41 49.791 265.771 50.0488 265.367 50.5645C264.963 51.0801 264.761 51.9443 264.761 53.1572V58H262.695V48.2793H264.312L264.603 49.5537H264.708C265.001 49.0908 265.417 48.7334 265.956 48.4814C266.495 48.2295 267.093 48.1035 267.749 48.1035C270.081 48.1035 271.247 49.29 271.247 51.6631V58Z" fill="#5A7184"/>
<rect opacity="0.05" x="301" y="32" width="89" height="40" rx="6" fill="white"/>
<path d="M329.873 58H327.298L320.979 47.7607H320.908L320.952 48.332C321.034 49.4219 321.075 50.418 321.075 51.3203V58H319.168V45.1504H321.717L328.019 55.3369H328.071C328.06 55.2021 328.036 54.7129 328.001 53.8691C327.966 53.0195 327.948 52.3574 327.948 51.8828V45.1504H329.873V58ZM339.901 58L339.611 56.7256H339.506C339.219 57.1768 338.809 57.5312 338.275 57.7891C337.748 58.0469 337.145 58.1758 336.465 58.1758C335.287 58.1758 334.408 57.8828 333.828 57.2969C333.248 56.7109 332.958 55.8232 332.958 54.6338V48.2793H335.041V54.2734C335.041 55.0176 335.193 55.5771 335.498 55.9521C335.803 56.3213 336.28 56.5059 336.931 56.5059C337.798 56.5059 338.434 56.248 338.838 55.7324C339.248 55.2109 339.453 54.3408 339.453 53.1221V48.2793H341.527V58H339.901ZM349.947 51.0303H354.676V57.4814C353.902 57.7334 353.158 57.9121 352.443 58.0176C351.734 58.123 350.967 58.1758 350.141 58.1758C348.195 58.1758 346.695 57.6016 345.641 56.4531C344.586 55.2988 344.059 53.6729 344.059 51.5752C344.059 49.5068 344.653 47.8896 345.843 46.7236C347.032 45.5518 348.67 44.9658 350.756 44.9658C352.098 44.9658 353.369 45.2236 354.57 45.7393L353.832 47.4883C352.789 47.0078 351.746 46.7676 350.703 46.7676C349.332 46.7676 348.248 47.1982 347.451 48.0596C346.654 48.9209 346.256 50.0986 346.256 51.5928C346.256 53.1631 346.613 54.3584 347.328 55.1787C348.049 55.9932 349.083 56.4004 350.431 56.4004C351.11 56.4004 351.837 56.3154 352.61 56.1455V52.832H349.947V51.0303ZM361.795 58.1758C360.283 58.1758 359.1 57.7363 358.244 56.8574C357.395 55.9727 356.97 54.7568 356.97 53.21C356.97 51.6221 357.365 50.374 358.156 49.4658C358.947 48.5576 360.034 48.1035 361.417 48.1035C362.7 48.1035 363.714 48.4932 364.458 49.2725C365.202 50.0518 365.574 51.124 365.574 52.4893V53.6055H359.097C359.126 54.5488 359.381 55.2754 359.861 55.7852C360.342 56.2891 361.019 56.541 361.892 56.541C362.466 56.541 362.999 56.4883 363.491 56.3828C363.989 56.2715 364.522 56.0898 365.091 55.8379V57.5166C364.587 57.7568 364.077 57.9268 363.562 58.0264C363.046 58.126 362.457 58.1758 361.795 58.1758ZM361.417 49.668C360.761 49.668 360.233 49.876 359.835 50.292C359.442 50.708 359.208 51.3145 359.132 52.1113H363.544C363.532 51.3086 363.339 50.7021 362.964 50.292C362.589 49.876 362.073 49.668 361.417 49.668ZM371.542 56.5059C372.046 56.5059 372.55 56.4268 373.054 56.2686V57.8242C372.825 57.9238 372.529 58.0059 372.166 58.0703C371.809 58.1406 371.437 58.1758 371.05 58.1758C369.093 58.1758 368.114 57.1445 368.114 55.082V49.8438H366.787V48.9297L368.211 48.1738L368.914 46.1172H370.188V48.2793H372.957V49.8438H370.188V55.0469C370.188 55.5449 370.312 55.9141 370.558 56.1543C370.81 56.3887 371.138 56.5059 371.542 56.5059Z" fill="#5A7184"/>
<rect opacity="0.05" x="402" y="32" width="70" height="40" rx="6" fill="white"/>
<path d="M426.409 55.2314C426.409 56.1807 426.063 56.9102 425.372 57.4199C424.681 57.9238 423.69 58.1758 422.401 58.1758C421.106 58.1758 420.066 57.9795 419.281 57.5869V55.8027C420.424 56.3301 421.487 56.5938 422.472 56.5938C423.743 56.5938 424.379 56.21 424.379 55.4424C424.379 55.1963 424.309 54.9912 424.168 54.8271C424.027 54.6631 423.796 54.4932 423.474 54.3174C423.151 54.1416 422.703 53.9424 422.129 53.7197C421.01 53.2861 420.251 52.8525 419.853 52.4189C419.46 51.9854 419.264 51.4229 419.264 50.7314C419.264 49.8994 419.598 49.2549 420.266 48.7979C420.939 48.335 421.854 48.1035 423.008 48.1035C424.15 48.1035 425.231 48.335 426.251 48.7979L425.583 50.3535C424.534 49.9199 423.652 49.7031 422.938 49.7031C421.848 49.7031 421.303 50.0137 421.303 50.6348C421.303 50.9395 421.443 51.1973 421.725 51.4082C422.012 51.6191 422.633 51.9092 423.588 52.2783C424.391 52.5889 424.974 52.873 425.337 53.1309C425.7 53.3887 425.97 53.6875 426.146 54.0273C426.321 54.3613 426.409 54.7627 426.409 55.2314ZM433.581 58.1758C432.351 58.1758 431.396 57.7334 430.716 56.8486H430.593C430.675 57.6689 430.716 58.167 430.716 58.3428V62.3242H428.65V48.2793H430.32C430.367 48.4609 430.464 48.8945 430.61 49.5801H430.716C431.36 48.5957 432.327 48.1035 433.616 48.1035C434.829 48.1035 435.772 48.543 436.446 49.4219C437.126 50.3008 437.466 51.5342 437.466 53.1221C437.466 54.71 437.12 55.9492 436.429 56.8398C435.743 57.7305 434.794 58.1758 433.581 58.1758ZM433.08 49.791C432.26 49.791 431.659 50.0312 431.278 50.5117C430.903 50.9922 430.716 51.7598 430.716 52.8145V53.1221C430.716 54.3057 430.903 55.1641 431.278 55.6973C431.653 56.2246 432.266 56.4883 433.115 56.4883C433.83 56.4883 434.381 56.1953 434.768 55.6094C435.154 55.0234 435.348 54.1885 435.348 53.1045C435.348 52.0146 435.154 51.1914 434.768 50.6348C434.387 50.0723 433.824 49.791 433.08 49.791ZM448.057 58H445.982V52.0059C445.982 51.2617 445.842 50.708 445.561 50.3447C445.279 49.9756 444.84 49.791 444.242 49.791C443.445 49.791 442.859 50.0518 442.484 50.5732C442.115 51.0889 441.931 51.9502 441.931 53.1572V58H439.865V48.2793H441.482L441.772 49.5537H441.878C442.147 49.0908 442.537 48.7334 443.047 48.4814C443.562 48.2295 444.128 48.1035 444.743 48.1035C446.237 48.1035 447.228 48.6133 447.714 49.6328H447.854C448.142 49.1523 448.546 48.7773 449.067 48.5078C449.589 48.2383 450.187 48.1035 450.86 48.1035C452.021 48.1035 452.864 48.3965 453.392 48.9824C453.925 49.5684 454.191 50.4619 454.191 51.6631V58H452.126V52.0059C452.126 51.2617 451.982 50.708 451.695 50.3447C451.414 49.9756 450.975 49.791 450.377 49.791C449.574 49.791 448.985 50.043 448.61 50.5469C448.241 51.0449 448.057 51.8125 448.057 52.8496V58Z" fill="#5A7184"/>
<rect opacity="0.05" x="484" y="32" width="96" height="40" rx="6" fill="white"/>
<path d="M509.764 58H507.689V52.0059C507.689 51.2617 507.549 50.708 507.268 50.3447C506.986 49.9756 506.547 49.791 505.949 49.791C505.152 49.791 504.566 50.0518 504.191 50.5732C503.822 51.0889 503.638 51.9502 503.638 53.1572V58H501.572V48.2793H503.189L503.479 49.5537H503.585C503.854 49.0908 504.244 48.7334 504.754 48.4814C505.27 48.2295 505.835 48.1035 506.45 48.1035C507.944 48.1035 508.935 48.6133 509.421 49.6328H509.562C509.849 49.1523 510.253 48.7773 510.774 48.5078C511.296 48.2383 511.894 48.1035 512.567 48.1035C513.728 48.1035 514.571 48.3965 515.099 48.9824C515.632 49.5684 515.898 50.4619 515.898 51.6631V58H513.833V52.0059C513.833 51.2617 513.689 50.708 513.402 50.3447C513.121 49.9756 512.682 49.791 512.084 49.791C511.281 49.791 510.692 50.043 510.317 50.5469C509.948 51.0449 509.764 51.8125 509.764 52.8496V58ZM523.026 58.1758C521.515 58.1758 520.331 57.7363 519.476 56.8574C518.626 55.9727 518.201 54.7568 518.201 53.21C518.201 51.6221 518.597 50.374 519.388 49.4658C520.179 48.5576 521.266 48.1035 522.648 48.1035C523.932 48.1035 524.945 48.4932 525.689 49.2725C526.434 50.0518 526.806 51.124 526.806 52.4893V53.6055H520.328C520.357 54.5488 520.612 55.2754 521.093 55.7852C521.573 56.2891 522.25 56.541 523.123 56.541C523.697 56.541 524.23 56.4883 524.723 56.3828C525.221 56.2715 525.754 56.0898 526.322 55.8379V57.5166C525.818 57.7568 525.309 57.9268 524.793 58.0264C524.277 58.126 523.688 58.1758 523.026 58.1758ZM522.648 49.668C521.992 49.668 521.465 49.876 521.066 50.292C520.674 50.708 520.439 51.3145 520.363 52.1113H524.775C524.764 51.3086 524.57 50.7021 524.195 50.292C523.82 49.876 523.305 49.668 522.648 49.668ZM532.773 56.5059C533.277 56.5059 533.781 56.4268 534.285 56.2686V57.8242C534.057 57.9238 533.761 58.0059 533.397 58.0703C533.04 58.1406 532.668 58.1758 532.281 58.1758C530.324 58.1758 529.346 57.1445 529.346 55.082V49.8438H528.019V48.9297L529.442 48.1738L530.146 46.1172H531.42V48.2793H534.188V49.8438H531.42V55.0469C531.42 55.5449 531.543 55.9141 531.789 56.1543C532.041 56.3887 532.369 56.5059 532.773 56.5059ZM540.481 58.1758C538.97 58.1758 537.786 57.7363 536.931 56.8574C536.081 55.9727 535.656 54.7568 535.656 53.21C535.656 51.6221 536.052 50.374 536.843 49.4658C537.634 48.5576 538.721 48.1035 540.104 48.1035C541.387 48.1035 542.4 48.4932 543.145 49.2725C543.889 50.0518 544.261 51.124 544.261 52.4893V53.6055H537.783C537.812 54.5488 538.067 55.2754 538.548 55.7852C539.028 56.2891 539.705 56.541 540.578 56.541C541.152 56.541 541.686 56.4883 542.178 56.3828C542.676 56.2715 543.209 56.0898 543.777 55.8379V57.5166C543.273 57.7568 542.764 57.9268 542.248 58.0264C541.732 58.126 541.144 58.1758 540.481 58.1758ZM540.104 49.668C539.447 49.668 538.92 49.876 538.521 50.292C538.129 50.708 537.895 51.3145 537.818 52.1113H542.23C542.219 51.3086 542.025 50.7021 541.65 50.292C541.275 49.876 540.76 49.668 540.104 49.668ZM555.229 53.1221C555.229 54.71 554.822 55.9492 554.008 56.8398C553.193 57.7305 552.06 58.1758 550.606 58.1758C549.698 58.1758 548.896 57.9707 548.198 57.5605C547.501 57.1504 546.965 56.5615 546.59 55.7939C546.215 55.0264 546.027 54.1357 546.027 53.1221C546.027 51.5459 546.432 50.3154 547.24 49.4307C548.049 48.5459 549.188 48.1035 550.659 48.1035C552.065 48.1035 553.179 48.5576 553.999 49.4658C554.819 50.3682 555.229 51.5869 555.229 53.1221ZM548.154 53.1221C548.154 55.3662 548.983 56.4883 550.642 56.4883C552.282 56.4883 553.103 55.3662 553.103 53.1221C553.103 50.9014 552.276 49.791 550.624 49.791C549.757 49.791 549.127 50.0781 548.734 50.6523C548.348 51.2266 548.154 52.0498 548.154 53.1221ZM562.542 48.1035C562.958 48.1035 563.301 48.1328 563.57 48.1914L563.368 50.1162C563.075 50.0459 562.771 50.0107 562.454 50.0107C561.628 50.0107 560.957 50.2803 560.441 50.8193C559.932 51.3584 559.677 52.0586 559.677 52.9199V58H557.611V48.2793H559.229L559.501 49.9932H559.606C559.929 49.4131 560.348 48.9531 560.863 48.6133C561.385 48.2734 561.944 48.1035 562.542 48.1035Z" fill="#5A7184"/>
<path d="M52.7344 114.547L52.7891 115.523C53.4141 114.768 54.2344 114.391 55.25 114.391C57.0104 114.391 57.9062 115.398 57.9375 117.414V123H56.0391V117.523C56.0391 116.987 55.9219 116.591 55.6875 116.336C55.4583 116.076 55.0807 115.945 54.5547 115.945C53.7891 115.945 53.2188 116.292 52.8438 116.984V123H50.9453V114.547H52.7344ZM67.2812 118.859C67.2812 120.167 66.9844 121.211 66.3906 121.992C65.7969 122.768 65 123.156 64 123.156C63.0729 123.156 62.3307 122.852 61.7734 122.242V126.25H59.875V114.547H61.625L61.7031 115.406C62.2604 114.729 63.0182 114.391 63.9766 114.391C65.0078 114.391 65.8151 114.776 66.3984 115.547C66.987 116.312 67.2812 117.378 67.2812 118.742V118.859ZM65.3906 118.695C65.3906 117.852 65.2214 117.182 64.8828 116.688C64.5495 116.193 64.0703 115.945 63.4453 115.945C62.6693 115.945 62.112 116.266 61.7734 116.906V120.656C62.1172 121.312 62.6797 121.641 63.4609 121.641C64.0651 121.641 64.5365 121.398 64.875 120.914C65.2188 120.424 65.3906 119.685 65.3906 118.695ZM70.6797 114.547L70.7344 115.43C71.3281 114.737 72.1406 114.391 73.1719 114.391C74.3021 114.391 75.0755 114.823 75.4922 115.688C76.1068 114.823 76.9714 114.391 78.0859 114.391C79.0182 114.391 79.7109 114.648 80.1641 115.164C80.6224 115.68 80.8568 116.44 80.8672 117.445V123H78.9688V117.5C78.9688 116.964 78.8516 116.57 78.6172 116.32C78.3828 116.07 77.9948 115.945 77.4531 115.945C77.0208 115.945 76.6667 116.062 76.3906 116.297C76.1198 116.526 75.9297 116.828 75.8203 117.203L75.8281 123H73.9297V117.438C73.9036 116.443 73.3958 115.945 72.4062 115.945C71.6458 115.945 71.1068 116.255 70.7891 116.875V123H68.8906V114.547H70.6797ZM88.8203 123H86.9219V114.547H88.8203V123ZM86.8047 112.352C86.8047 112.06 86.8958 111.818 87.0781 111.625C87.2656 111.432 87.5312 111.336 87.875 111.336C88.2188 111.336 88.4844 111.432 88.6719 111.625C88.8594 111.818 88.9531 112.06 88.9531 112.352C88.9531 112.638 88.8594 112.878 88.6719 113.07C88.4844 113.258 88.2188 113.352 87.875 113.352C87.5312 113.352 87.2656 113.258 87.0781 113.07C86.8958 112.878 86.8047 112.638 86.8047 112.352ZM92.6562 114.547L92.7109 115.523C93.3359 114.768 94.1562 114.391 95.1719 114.391C96.9323 114.391 97.8281 115.398 97.8594 117.414V123H95.9609V117.523C95.9609 116.987 95.8438 116.591 95.6094 116.336C95.3802 116.076 95.0026 115.945 94.4766 115.945C93.7109 115.945 93.1406 116.292 92.7656 116.984V123H90.8672V114.547H92.6562ZM104.539 120.703C104.539 120.365 104.398 120.107 104.117 119.93C103.841 119.753 103.38 119.596 102.734 119.461C102.089 119.326 101.549 119.154 101.117 118.945C100.169 118.487 99.6953 117.823 99.6953 116.953C99.6953 116.224 100.003 115.615 100.617 115.125C101.232 114.635 102.013 114.391 102.961 114.391C103.971 114.391 104.786 114.641 105.406 115.141C106.031 115.641 106.344 116.289 106.344 117.086H104.445C104.445 116.721 104.31 116.419 104.039 116.18C103.768 115.935 103.409 115.812 102.961 115.812C102.544 115.812 102.203 115.909 101.938 116.102C101.677 116.294 101.547 116.552 101.547 116.875C101.547 117.167 101.669 117.393 101.914 117.555C102.159 117.716 102.654 117.88 103.398 118.047C104.143 118.208 104.727 118.404 105.148 118.633C105.576 118.857 105.891 119.128 106.094 119.445C106.302 119.763 106.406 120.148 106.406 120.602C106.406 121.362 106.091 121.979 105.461 122.453C104.831 122.922 104.005 123.156 102.984 123.156C102.292 123.156 101.674 123.031 101.133 122.781C100.591 122.531 100.169 122.188 99.8672 121.75C99.5651 121.312 99.4141 120.841 99.4141 120.336H101.258C101.284 120.784 101.453 121.13 101.766 121.375C102.078 121.615 102.492 121.734 103.008 121.734C103.508 121.734 103.888 121.641 104.148 121.453C104.409 121.26 104.539 121.01 104.539 120.703ZM110.445 112.492V114.547H111.938V115.953H110.445V120.672C110.445 120.995 110.508 121.229 110.633 121.375C110.763 121.516 110.992 121.586 111.32 121.586C111.539 121.586 111.76 121.56 111.984 121.508V122.977C111.552 123.096 111.135 123.156 110.734 123.156C109.276 123.156 108.547 122.352 108.547 120.742V115.953H107.156V114.547H108.547V112.492H110.445ZM118.445 123C118.362 122.839 118.289 122.576 118.227 122.211C117.622 122.841 116.883 123.156 116.008 123.156C115.159 123.156 114.466 122.914 113.93 122.43C113.393 121.945 113.125 121.346 113.125 120.633C113.125 119.732 113.458 119.042 114.125 118.562C114.797 118.078 115.755 117.836 117 117.836H118.164V117.281C118.164 116.844 118.042 116.495 117.797 116.234C117.552 115.969 117.18 115.836 116.68 115.836C116.247 115.836 115.893 115.945 115.617 116.164C115.341 116.378 115.203 116.651 115.203 116.984H113.305C113.305 116.521 113.458 116.089 113.766 115.688C114.073 115.281 114.49 114.964 115.016 114.734C115.547 114.505 116.138 114.391 116.789 114.391C117.779 114.391 118.568 114.641 119.156 115.141C119.745 115.635 120.047 116.333 120.062 117.234V121.047C120.062 121.807 120.169 122.414 120.383 122.867V123H118.445ZM116.359 121.633C116.734 121.633 117.086 121.542 117.414 121.359C117.747 121.177 117.997 120.932 118.164 120.625V119.031H117.141C116.438 119.031 115.909 119.154 115.555 119.398C115.201 119.643 115.023 119.99 115.023 120.438C115.023 120.802 115.143 121.094 115.383 121.312C115.628 121.526 115.953 121.633 116.359 121.633ZM124.07 123H122.172V111H124.07V123ZM128.164 123H126.266V111H128.164V123ZM156.258 123.156C155.055 123.156 154.078 122.779 153.328 122.023C152.583 121.263 152.211 120.253 152.211 118.992V118.758C152.211 117.914 152.372 117.161 152.695 116.5C153.023 115.833 153.482 115.315 154.07 114.945C154.659 114.576 155.315 114.391 156.039 114.391C157.19 114.391 158.078 114.758 158.703 115.492C159.333 116.227 159.648 117.266 159.648 118.609V119.375H154.125C154.182 120.073 154.414 120.625 154.82 121.031C155.232 121.438 155.747 121.641 156.367 121.641C157.237 121.641 157.945 121.289 158.492 120.586L159.516 121.562C159.177 122.068 158.724 122.461 158.156 122.742C157.594 123.018 156.961 123.156 156.258 123.156ZM156.031 115.914C155.51 115.914 155.089 116.096 154.766 116.461C154.448 116.826 154.245 117.333 154.156 117.984H157.773V117.844C157.732 117.208 157.562 116.729 157.266 116.406C156.969 116.078 156.557 115.914 156.031 115.914ZM163 115.469C163.62 114.75 164.404 114.391 165.352 114.391C167.154 114.391 168.068 115.419 168.094 117.477V123H166.195V117.547C166.195 116.964 166.068 116.552 165.812 116.312C165.562 116.068 165.193 115.945 164.703 115.945C163.943 115.945 163.375 116.284 163 116.961V123H161.102V111H163V115.469ZM172.977 120.281L174.695 114.547H176.719L173.359 124.281C172.844 125.703 171.969 126.414 170.734 126.414C170.458 126.414 170.154 126.367 169.82 126.273V124.805L170.18 124.828C170.659 124.828 171.018 124.74 171.258 124.562C171.503 124.391 171.695 124.099 171.836 123.688L172.109 122.961L169.141 114.547H171.188L172.977 120.281ZM182.742 123C182.659 122.839 182.586 122.576 182.523 122.211C181.919 122.841 181.18 123.156 180.305 123.156C179.456 123.156 178.763 122.914 178.227 122.43C177.69 121.945 177.422 121.346 177.422 120.633C177.422 119.732 177.755 119.042 178.422 118.562C179.094 118.078 180.052 117.836 181.297 117.836H182.461V117.281C182.461 116.844 182.339 116.495 182.094 116.234C181.849 115.969 181.477 115.836 180.977 115.836C180.544 115.836 180.19 115.945 179.914 116.164C179.638 116.378 179.5 116.651 179.5 116.984H177.602C177.602 116.521 177.755 116.089 178.062 115.688C178.37 115.281 178.786 114.964 179.312 114.734C179.844 114.505 180.435 114.391 181.086 114.391C182.076 114.391 182.865 114.641 183.453 115.141C184.042 115.635 184.344 116.333 184.359 117.234V121.047C184.359 121.807 184.466 122.414 184.68 122.867V123H182.742ZM180.656 121.633C181.031 121.633 181.383 121.542 181.711 121.359C182.044 121.177 182.294 120.932 182.461 120.625V119.031H181.438C180.734 119.031 180.206 119.154 179.852 119.398C179.497 119.643 179.32 119.99 179.32 120.438C179.32 120.802 179.44 121.094 179.68 121.312C179.924 121.526 180.25 121.633 180.656 121.633ZM187.531 121C187.885 121 188.159 121.102 188.352 121.305C188.544 121.503 188.641 121.753 188.641 122.055C188.641 122.352 188.544 122.599 188.352 122.797C188.159 122.99 187.885 123.086 187.531 123.086C187.193 123.086 186.924 122.99 186.727 122.797C186.529 122.604 186.43 122.357 186.43 122.055C186.43 121.753 186.526 121.503 186.719 121.305C186.911 121.102 187.182 121 187.531 121ZM192.797 114.547V123.75C192.797 124.615 192.581 125.273 192.148 125.727C191.721 126.185 191.094 126.414 190.266 126.414C189.917 126.414 189.581 126.37 189.258 126.281V124.781C189.456 124.828 189.68 124.852 189.93 124.852C190.56 124.852 190.883 124.508 190.898 123.82V114.547H192.797ZM190.734 112.352C190.734 112.06 190.826 111.818 191.008 111.625C191.195 111.432 191.461 111.336 191.805 111.336C192.148 111.336 192.414 111.432 192.602 111.625C192.789 111.818 192.883 112.06 192.883 112.352C192.883 112.638 192.789 112.878 192.602 113.07C192.414 113.258 192.148 113.352 191.805 113.352C191.461 113.352 191.195 113.258 191.008 113.07C190.826 112.878 190.734 112.638 190.734 112.352ZM199.57 120.703C199.57 120.365 199.43 120.107 199.148 119.93C198.872 119.753 198.411 119.596 197.766 119.461C197.12 119.326 196.581 119.154 196.148 118.945C195.201 118.487 194.727 117.823 194.727 116.953C194.727 116.224 195.034 115.615 195.648 115.125C196.263 114.635 197.044 114.391 197.992 114.391C199.003 114.391 199.818 114.641 200.438 115.141C201.062 115.641 201.375 116.289 201.375 117.086H199.477C199.477 116.721 199.341 116.419 199.07 116.18C198.799 115.935 198.44 115.812 197.992 115.812C197.576 115.812 197.234 115.909 196.969 116.102C196.708 116.294 196.578 116.552 196.578 116.875C196.578 117.167 196.701 117.393 196.945 117.555C197.19 117.716 197.685 117.88 198.43 118.047C199.174 118.208 199.758 118.404 200.18 118.633C200.607 118.857 200.922 119.128 201.125 119.445C201.333 119.763 201.438 120.148 201.438 120.602C201.438 121.362 201.122 121.979 200.492 122.453C199.862 122.922 199.036 123.156 198.016 123.156C197.323 123.156 196.706 123.031 196.164 122.781C195.622 122.531 195.201 122.188 194.898 121.75C194.596 121.312 194.445 120.841 194.445 120.336H196.289C196.315 120.784 196.484 121.13 196.797 121.375C197.109 121.615 197.523 121.734 198.039 121.734C198.539 121.734 198.919 121.641 199.18 121.453C199.44 121.26 199.57 121.01 199.57 120.703Z" fill="white"/>
<path d="M137.906 118.93H133.805V117.398H137.906V118.93ZM139.141 118.711C139.141 117.398 139.448 116.352 140.062 115.57C140.682 114.784 141.503 114.391 142.523 114.391C143.487 114.391 144.245 114.727 144.797 115.398L144.883 114.547H146.594V122.742C146.594 123.852 146.247 124.727 145.555 125.367C144.867 126.008 143.938 126.328 142.766 126.328C142.146 126.328 141.539 126.198 140.945 125.938C140.357 125.682 139.909 125.346 139.602 124.93L140.5 123.789C141.083 124.482 141.802 124.828 142.656 124.828C143.286 124.828 143.784 124.656 144.148 124.312C144.513 123.974 144.695 123.474 144.695 122.812V122.242C144.148 122.852 143.419 123.156 142.508 123.156C141.518 123.156 140.708 122.763 140.078 121.977C139.453 121.19 139.141 120.102 139.141 118.711ZM141.031 118.875C141.031 119.724 141.203 120.393 141.547 120.883C141.896 121.367 142.378 121.609 142.992 121.609C143.758 121.609 144.326 121.281 144.695 120.625V116.906C144.336 116.266 143.773 115.945 143.008 115.945C142.383 115.945 141.896 116.193 141.547 116.688C141.203 117.182 141.031 117.911 141.031 118.875Z" fill="#00B8D9"/>
<path d="M269.219 127.773H268V111.656H269.219V127.773Z" fill="white"/>
<path d="M37.9375 119.984C37.9375 119.573 37.8359 119.25 37.6328 119.016C37.4297 118.781 37.0729 118.56 36.5625 118.352C36.0521 118.143 35.5807 117.932 35.1484 117.719C34.7161 117.505 34.3438 117.258 34.0312 116.977C33.7188 116.695 33.4792 116.37 33.3125 116C33.1458 115.63 33.0625 115.182 33.0625 114.656C33.0625 113.776 33.3594 113.052 33.9531 112.484C34.5469 111.911 35.3385 111.578 36.3281 111.484V109.836H37.5703V111.516C38.5234 111.656 39.2708 112.049 39.8125 112.695C40.3594 113.336 40.6328 114.151 40.6328 115.141H37.9922C37.9922 114.599 37.888 114.182 37.6797 113.891C37.4714 113.599 37.1745 113.453 36.7891 113.453C36.4453 113.453 36.1771 113.562 35.9844 113.781C35.7969 113.995 35.7031 114.292 35.7031 114.672C35.7031 115.057 35.8125 115.365 36.0312 115.594C36.25 115.818 36.6016 116.034 37.0859 116.242C37.5703 116.445 38.026 116.659 38.4531 116.883C38.8854 117.102 39.2578 117.352 39.5703 117.633C39.8828 117.914 40.1276 118.242 40.3047 118.617C40.4818 118.992 40.5703 119.443 40.5703 119.969C40.5703 120.859 40.2865 121.586 39.7188 122.148C39.1562 122.711 38.388 123.039 37.4141 123.133V124.703H36.1719V123.125C35.0365 123.005 34.1641 122.617 33.5547 121.961C32.9505 121.299 32.6484 120.43 32.6484 119.352H35.2812C35.2812 119.945 35.4115 120.398 35.6719 120.711C35.9375 121.018 36.3125 121.172 36.7969 121.172C37.151 121.172 37.4297 121.068 37.6328 120.859C37.8359 120.646 37.9375 120.354 37.9375 119.984Z" fill="#5A7184"/>
</svg>
