<svg width="40" height="40" viewBox="0 0 40 40" fill="none" xmlns="http://www.w3.org/2000/svg">
<path opacity="0.3" fill-rule="evenodd" clip-rule="evenodd" d="M25.6 28.8V36C25.6 37.3255 24.5254 38.4 23.2 38.4H5.59995C4.27447 38.4 3.19995 37.3255 3.19995 36V18.4C3.19995 17.0745 4.27447 16 5.59995 16H12.8V24.8C12.8 27.0091 14.5908 28.8 16.8 28.8H25.6Z" fill="#1565D8"/>
<path fill-rule="evenodd" clip-rule="evenodd" d="M16.8 4.8H34.4C35.7255 4.8 36.8 5.87452 36.8 7.2V24.8C36.8 26.1255 35.7255 27.2 34.4 27.2H16.8C15.4745 27.2 14.4 26.1255 14.4 24.8V7.2C14.4 5.87452 15.4745 4.8 16.8 4.8Z" fill="#1565D8"/>
</svg>
