<svg width="40" height="40" viewBox="0 0 40 40" fill="none" xmlns="http://www.w3.org/2000/svg">
<path fill-rule="evenodd" clip-rule="evenodd" d="M36.5772 32H3.42395L6.07693 24.041C6.08151 24.0273 6.08621 24.0136 6.09103 24H33.9101C33.9149 24.0136 33.9196 24.0273 33.9242 24.041L36.5772 32ZM16.7999 27.2C16.3581 27.2 15.9999 27.5582 15.9999 28C15.9999 28.4418 16.3581 28.8 16.7999 28.8H23.1999C23.6418 28.8 23.9999 28.4418 23.9999 28C23.9999 27.5582 23.6418 27.2 23.1999 27.2H16.7999ZM6.39994 22.4V7.19999C6.39994 5.8745 7.47446 4.79999 8.79994 4.79999H31.1999C32.5254 4.79999 33.5999 5.8745 33.5999 7.19999V22.4H6.39994ZM15.5608 9.6568L14.2129 8.67651L10.5231 13.75L14.2129 18.8235L15.5608 17.8432L12.5839 13.75L15.5608 9.6568ZM23.8564 9.6568L26.8333 13.75L23.8564 17.8432L25.2043 18.8235L28.8941 13.75L25.2043 8.67651L23.8564 9.6568ZM20.7483 7.28527L17.415 19.7853L19.0254 20.2147L22.3587 7.71471L20.7483 7.28527Z" fill="#1565D8"/>
<path opacity="0.3" fill-rule="evenodd" clip-rule="evenodd" d="M36.72 33.6C36.3494 35.4258 34.7352 36.8 32.8 36.8H7.20001C5.26485 36.8 3.65065 35.4258 3.28003 33.6L36.72 33.6Z" fill="#1565D8"/>
</svg>
