<svg width="40" height="40" viewBox="0 0 40 40" fill="none" xmlns="http://www.w3.org/2000/svg">
<path fill-rule="evenodd" clip-rule="evenodd" d="M11.4927 15.7022C13.5954 12.7141 14.9079 9.28523 15.4345 5.40346C15.4846 5.03368 15.7464 4.7262 16.1057 4.61501C19.7268 3.49438 21.7855 5.27515 21.7515 9.3357C21.7449 10.1239 21.7085 10.8245 21.6311 11.896C21.4581 14.2894 21.4719 14.9425 21.7399 15.382C21.9974 15.8045 22.8336 15.9487 24.8114 15.5732C25.4354 15.4547 26.0615 15.3204 26.7549 15.1591C27.0609 15.0879 29.2657 14.55 29.8292 14.4283C30.9042 14.1962 31.6756 14.0979 32.3539 14.1395C34.1914 14.2522 35.1664 15.4353 35.3349 17.7019C35.6316 21.6936 34.7148 29.7114 33.8001 32.6647C32.8655 35.6826 31.2355 36.8217 27.3229 36.8905C24.8073 36.9348 20.9383 36.9348 15.6977 36.8904C14.36 36.8593 13.1476 36.6002 12.0692 36.1159C12.3719 35.4891 12.5415 34.7871 12.5415 34.0458V18.6858C12.5415 17.5582 12.1492 16.5214 11.4927 15.7022Z" fill="#1565D8"/>
<path opacity="0.3" fill-rule="evenodd" clip-rule="evenodd" d="M5.76244 15.8057C4.15791 15.8057 2.85718 17.0951 2.85718 18.6857V34.0457C2.85718 35.6362 4.15791 36.9257 5.76244 36.9257H7.69928C9.30382 36.9257 10.6045 35.6362 10.6045 34.0457V18.6857C10.6045 17.0951 9.30382 15.8057 7.69928 15.8057H5.76244Z" fill="#1565D8"/>
</svg>
