<svg width="40" height="40" viewBox="0 0 40 40" fill="none" xmlns="http://www.w3.org/2000/svg">
<path opacity="0.3" fill-rule="evenodd" clip-rule="evenodd" d="M19.2456 31.7549L20.3796 32.8889C20.841 33.3503 20.841 34.0986 20.3796 34.56C19.9181 35.0215 19.1699 35.0215 18.7084 34.56L15.5571 31.4088C15.0957 30.9473 15.0957 30.1991 15.5571 29.7376L18.7084 26.5864C19.1699 26.1249 19.9181 26.1249 20.3796 26.5864C20.841 27.0479 20.841 27.7961 20.3796 28.2576L19.2456 29.3915H27.0281V31.7549H19.2456ZM31.7549 19.8423L32.8889 18.7084C33.3503 18.2469 34.0986 18.2469 34.56 18.7084C35.0215 19.1699 35.0215 19.9181 34.56 20.3796L31.4088 23.5308C31.1781 23.7615 30.8757 23.8769 30.5732 23.8769C30.2708 23.8769 29.9684 23.7615 29.7376 23.5308L26.5864 20.3796C26.1249 19.9181 26.1249 19.1699 26.5864 18.7084C27.0479 18.2469 27.7961 18.2469 28.2576 18.7084L29.3915 19.8423V12.0598H31.7549V19.8423ZM19.8423 9.6964H12.0598V7.33298H19.8423L18.7084 6.19906C18.2469 5.73758 18.2469 4.98936 18.7084 4.52788C19.1699 4.06639 19.9181 4.06639 20.3796 4.52788L23.5308 7.6791C23.9923 8.14058 23.9923 8.8888 23.5308 9.35028L20.3796 12.5015C19.9181 12.963 19.1699 12.963 18.7084 12.5015C18.2469 12.04 18.2469 11.2918 18.7084 10.8303L19.8423 9.6964ZM7.33298 19.2456L6.19906 20.3796C5.73758 20.841 4.98936 20.841 4.52788 20.3796C4.06639 19.9181 4.06639 19.1699 4.52788 18.7084L7.6791 15.5571C8.14058 15.0957 8.8888 15.0957 9.35028 15.5571L12.5015 18.7084C12.963 19.1699 12.963 19.9181 12.5015 20.3796C12.04 20.841 11.2918 20.841 10.8303 20.3796L9.6964 19.2456V27.0281H7.33298V19.2456Z" fill="#1565D8"/>
<path fill-rule="evenodd" clip-rule="evenodd" d="M14.0293 11.6659V5.36341C14.0293 4.05814 12.9711 3 11.6659 3H5.36341C4.05814 3 3 4.05814 3 5.36341V11.6659C3 12.9711 4.05814 14.0293 5.36341 14.0293H11.6659C12.9711 14.0293 14.0293 12.9711 14.0293 11.6659ZM11.6659 25.0585H5.36341C4.05814 25.0585 3 26.1167 3 27.422V33.7244C3 35.0297 4.05814 36.0878 5.36341 36.0878H11.6659C12.9711 36.0878 14.0293 35.0297 14.0293 33.7244V27.422C14.0293 26.1167 12.9711 25.0585 11.6659 25.0585ZM33.7244 14.0293H27.422C26.1167 14.0293 25.0585 12.9711 25.0585 11.6659V5.36341C25.0585 4.05814 26.1167 3 27.422 3H33.7244C35.0297 3 36.0878 4.05814 36.0878 5.36341V11.6659C36.0878 12.9711 35.0297 14.0293 33.7244 14.0293ZM25.0585 27.422V33.7244C25.0585 35.0297 26.1167 36.0878 27.422 36.0878H33.7244C35.0297 36.0878 36.0878 35.0297 36.0878 33.7244V27.422C36.0878 26.1167 35.0297 25.0585 33.7244 25.0585H27.422C26.1167 25.0585 25.0585 26.1167 25.0585 27.422Z" fill="#1565D8"/>
</svg>
